<svg version="1.1" id="Layer_1" xmlns="http://www.w3.org/2000/svg" xmlns:xlink="http://www.w3.org/1999/xlink" x="0px" y="0px"
	 width="100%" viewBox="0 0 151 164" enable-background="new 0 0 151 164" xml:space="preserve">
<defs>
    <filter id="shadow" x="-20%" y="-20%" width="140%" height="140%">
        <feGaussianBlur in="SourceAlpha" stdDeviation="3" />
        <feOffset dx="2" dy="2" result="offsetblur" />
        <feFlood flood-color="rgba(0,0,0,0.5)" />
        <feComposite in2="offsetblur" operator="in" />
        <feMerge>
            <feMergeNode />
            <feMergeNode in="SourceGraphic" />
        </feMerge>
    </filter>
</defs>
<path fill="#010100" opacity="0.000000" stroke="none" filter="url(#shadow)" 
	d="
M1.000000,71.000000 
	C1.000000,47.333336 1.000000,24.166672 1.000000,1.000006 
	C51.333324,1.000004 101.666649,1.000004 151.999969,1.000002 
	C151.999985,55.666653 151.999985,110.333305 152.000000,164.999969 
	C101.666687,164.999969 51.333378,164.999969 1.000032,164.999985 
	C1.000000,133.833328 1.000000,102.666664 1.000000,71.000000 
M35.384216,64.114563 
	C35.234863,64.476089 35.085514,64.837608 34.419090,65.614410 
	C27.130995,75.290894 22.422112,85.829399 22.403849,98.271355 
	C22.383795,111.931534 26.873308,123.900368 35.722347,134.016998 
	C40.187492,139.121765 45.576313,143.578125 52.735439,145.714966 
	C53.138577,145.886688 53.541714,146.058411 53.868206,146.106491 
	C53.868206,146.106491 53.749813,146.191010 54.101887,146.835983 
	C55.469528,147.583633 56.792706,148.873260 58.212132,148.989716 
	C66.513870,149.670822 74.886971,150.809113 83.133591,150.258759 
	C87.083221,149.995163 92.615730,149.972870 95.285652,144.211670 
	C99.288895,141.574036 103.656311,139.349670 107.218117,136.211075 
	C114.218536,130.042435 118.794716,122.192719 121.687950,112.857803 
	C121.809998,112.228874 121.932053,111.599953 121.984161,110.990532 
	C121.984161,110.990532 122.002373,111.060822 122.649429,110.616440 
	C123.425552,107.695778 124.673637,104.807358 124.875877,101.847481 
	C125.253479,96.321053 125.520721,90.660019 121.983551,85.044731 
	C119.102509,77.662621 115.934052,70.450851 110.002846,63.954224 
	C110.034225,56.000359 110.065613,48.046494 110.805130,39.775276 
	C111.140732,37.694595 111.476341,35.613911 111.891670,33.038982 
	C115.913330,33.038982 119.930489,33.421669 123.807480,32.851425 
	C125.367477,32.621975 127.431793,30.473410 127.766060,28.882917 
	C128.054153,27.512125 126.232086,24.306709 125.308716,24.293425 
	C118.181587,24.190891 111.046120,24.668045 103.980934,24.975813 
	C103.980934,24.975813 103.972542,24.907852 103.205551,24.983641 
	C102.284866,26.899666 100.611084,28.799469 100.569397,30.734430 
	C100.348610,40.983112 100.373039,51.246120 100.713661,61.490822 
	C100.788887,63.753613 102.486824,65.962448 103.806480,68.814423 
	C107.373329,74.805923 110.940178,80.797417 114.042145,87.376579 
	C114.066223,91.472130 114.007935,95.570663 114.156593,99.661690 
	C114.212799,101.208061 114.747002,102.737061 114.999435,105.078857 
	C114.229561,108.412796 113.459686,111.746735 111.992523,115.037277 
	C110.333633,117.742592 108.674744,120.447914 106.298950,123.171997 
	C105.268806,124.334435 104.352943,125.629204 103.187820,126.635330 
	C99.152359,130.120087 95.030205,133.504456 90.965744,136.973846 
	C90.965744,136.973846 90.917229,136.952621 90.200417,136.973083 
	C89.185616,137.680283 88.170815,138.387482 86.755600,139.708908 
	C85.159660,140.192551 83.563713,140.676178 81.041893,141.042480 
	C75.454552,141.081039 69.867218,141.119583 63.593487,140.995926 
	C59.780979,139.321915 55.968472,137.647903 52.016762,135.259064 
	C49.520073,133.443802 47.023380,131.628555 44.499035,129.495956 
	C44.499035,129.495956 44.181393,129.472122 44.190861,128.769547 
	C42.482761,127.483322 40.774662,126.197105 38.800602,124.262047 
	C37.146946,121.455078 35.493290,118.648117 33.970036,115.068817 
	C32.852547,108.917938 30.997692,102.784134 30.854757,96.610687 
	C30.743731,91.815361 32.768444,86.970573 34.094368,81.435120 
	C37.057323,77.369133 40.020275,73.303139 43.722763,68.753777 
	C43.777782,66.669960 43.832806,64.586151 43.956955,62.506035 
	C43.956955,62.506035 43.927216,62.443520 44.659557,61.942566 
	C44.974743,51.919167 45.333790,41.896637 45.532562,31.870932 
	C45.551037,30.939184 44.553001,29.987284 44.018867,28.289803 
	C42.967476,27.248974 41.916080,26.208143 39.955708,25.015400 
	C33.539677,25.062918 27.123648,25.110435 19.896460,25.036417 
	C19.268270,25.353546 18.191221,25.558952 18.080244,26.004816 
	C16.741682,31.382616 18.126534,33.014977 23.846233,33.018394 
	C26.804705,33.020161 30.199066,32.142731 32.578793,33.318096 
	C34.367294,34.201447 34.852982,37.722572 35.990479,40.993538 
	C36.046486,45.986370 36.102493,50.979202 36.010998,56.851978 
	C35.967426,59.226486 35.923859,61.600990 35.957016,63.971947 
	C35.957016,63.971947 35.949783,63.895477 35.384216,64.114563 
M82.999634,113.329323 
	C82.500618,110.841606 82.622963,107.976685 81.385048,105.937531 
	C77.796410,100.026169 72.539368,98.661156 65.119667,101.008720 
	C61.752781,102.074005 58.051559,107.609612 57.984634,111.680023 
	C57.873276,118.452957 60.389313,123.457626 64.713654,125.016808 
	C73.017166,128.010712 81.970863,125.034164 82.999634,113.329323 
M92.050812,75.521049 
	C86.696907,73.443466 82.927612,74.155571 81.506851,77.513046 
	C79.627182,81.954971 81.091446,87.252762 84.757980,89.275917 
	C87.683350,90.890106 92.970253,89.776718 94.994705,87.120117 
	C97.563591,83.749092 96.863266,80.383751 92.050812,75.521049 
M60.195774,73.678177 
	C63.425610,71.098488 62.597069,67.636696 61.173599,64.923523 
	C59.723412,62.159420 56.592827,61.001476 53.439823,62.454105 
	C50.459984,63.826950 48.124409,65.877586 48.456211,69.733650 
	C48.884907,74.715775 52.782593,76.294052 60.195774,73.678177 
z"/>
<path fill="#FBDD16" opacity="1.000000" stroke="none" 
	d="
M121.073868,113.080208 
	C118.794716,122.192719 114.218536,130.042435 107.218117,136.211075 
	C103.656311,139.349670 99.288895,141.574036 94.673325,144.486053 
	C85.868492,145.933777 77.705574,147.617981 69.472748,148.094543 
	C64.285881,148.394806 58.994377,146.887466 53.749813,146.191010 
	C53.749813,146.191010 53.868206,146.106491 53.832565,145.939011 
	C53.380447,145.613907 52.963966,145.456299 52.547485,145.298676 
	C45.576313,143.578125 40.187492,139.121765 35.722347,134.016998 
	C26.873308,123.900368 22.383795,111.931534 22.403849,98.271355 
	C22.422112,85.829399 27.130995,75.290894 34.882195,65.447449 
	C35.546791,64.818810 35.748283,64.357140 35.949783,63.895477 
	C35.949783,63.895477 35.957016,63.971947 36.289429,63.861557 
	C37.010071,61.125999 37.398300,58.500839 37.811283,55.415749 
	C37.589573,47.976463 37.343113,40.997105 36.973877,33.616432 
	C33.251060,32.786770 29.660284,32.126999 26.048880,31.982405 
	C20.110998,31.744667 19.541098,31.170277 20.707617,25.157951 
	C27.123648,25.110435 33.539677,25.062918 40.541893,25.484081 
	C41.504192,34.466816 41.819092,42.984341 42.300987,51.492405 
	C42.416317,53.528542 43.087746,55.533180 43.477631,57.952950 
	C43.610306,59.716900 43.768761,61.080208 43.927216,62.443520 
	C43.927216,62.443520 43.956955,62.506035 43.654816,62.785973 
	C43.229523,65.122986 43.106377,67.180069 42.983231,69.237144 
	C40.020275,73.303139 37.057323,77.369133 33.634109,81.867538 
	C32.704445,82.737793 32.004086,83.088036 31.799868,83.626465 
	C28.023445,93.583168 28.228876,103.623489 31.470720,113.645531 
	C31.759836,114.539307 33.026810,115.116776 33.839638,115.841148 
	C35.493290,118.648117 37.146946,121.455078 38.929672,124.942169 
	C40.766296,126.905579 42.473843,128.188858 44.181389,129.472122 
	C44.181393,129.472122 44.499035,129.495956 44.225212,129.906433 
	C46.686249,132.202591 49.421104,134.088242 52.155960,135.973907 
	C55.968472,137.647903 59.780979,139.321915 64.144562,141.365631 
	C70.453011,141.543488 76.210388,141.351654 81.967766,141.159805 
	C83.563713,140.676178 85.159660,140.192551 87.261368,139.542297 
	C88.817169,138.568008 89.867195,137.760315 90.917229,136.952621 
	C90.917229,136.952621 90.965744,136.973846 91.233871,137.283752 
	C98.438858,136.029709 102.662262,130.899490 107.249496,125.705246 
	C109.267113,122.070587 110.978462,118.575623 112.689819,115.080666 
	C113.459686,111.746735 114.229561,108.412796 115.356285,104.450623 
	C117.915009,97.960190 116.507889,92.353531 114.507027,86.788918 
	C110.940178,80.797417 107.373329,74.805923 103.705505,68.096512 
	C103.727196,53.221684 103.849869,39.064770 103.972542,24.907852 
	C103.972542,24.907852 103.980934,24.975813 104.402832,25.110191 
	C109.986778,25.288660 115.167061,25.104538 120.299904,25.514402 
	C121.861694,25.639114 123.292725,27.401438 124.783638,28.413738 
	C123.314873,29.576223 121.997025,31.333452 120.339973,31.753933 
	C118.161552,32.306713 115.697052,31.978210 113.390121,31.719982 
	C110.046509,31.345707 108.799690,32.856796 108.728447,36.318649 
	C108.363091,45.003826 108.169289,53.352028 108.200279,61.699402 
	C108.204208,62.756771 109.386429,63.809769 110.022751,64.864792 
	C115.934052,70.450851 119.102509,77.662621 121.792816,85.734589 
	C121.735504,94.636574 121.868942,102.848694 122.002373,111.060822 
	C122.002373,111.060822 121.984161,110.990532 121.718018,111.107391 
	C121.325874,111.842896 121.199867,112.461548 121.073868,113.080208 
z"/>
<path fill="#FBDB0A" opacity="1.000000" stroke="none" 
	d="
M82.999420,113.762268 
	C81.970863,125.034164 73.017166,128.010712 64.713654,125.016808 
	C60.389313,123.457626 57.873276,118.452957 57.984634,111.680023 
	C58.051559,107.609612 61.752781,102.074005 65.119667,101.008720 
	C72.539368,98.661156 77.796410,100.026169 81.385048,105.937531 
	C82.622963,107.976685 82.500618,110.841606 82.999420,113.762268 
z"/>
<path fill="#F7DA0E" opacity="1.000000" stroke="none" 
	d="
M92.359505,75.730682 
	C96.863266,80.383751 97.563591,83.749092 94.994705,87.120117 
	C92.970253,89.776718 87.683350,90.890106 84.757980,89.275917 
	C81.091446,87.252762 79.627182,81.954971 81.506851,77.513046 
	C82.927612,74.155571 86.696907,73.443466 92.359505,75.730682 
z"/>
<path fill="#FBDD16" opacity="1.000000" stroke="none" 
	d="
M59.817787,73.880066 
	C52.782593,76.294052 48.884907,74.715775 48.456211,69.733650 
	C48.124409,65.877586 50.459984,63.826950 53.439823,62.454105 
	C56.592827,61.001476 59.723412,62.159420 61.173599,64.923523 
	C62.597069,67.636696 63.425610,71.098488 59.817787,73.880066 
z"/>
<path fill="#F0EED2" opacity="1.000000" stroke="none" 
	d="
M103.589050,24.945747 
	C103.849869,39.064770 103.727196,53.221684 103.521034,67.787369 
	C102.486824,65.962448 100.788887,63.753613 100.713661,61.490822 
	C100.373039,51.246120 100.348610,40.983112 100.569397,30.734430 
	C100.611084,28.799469 102.284866,26.899666 103.589050,24.945747 
z"/>
<path fill="#E5E0B4" opacity="1.000000" stroke="none" 
	d="
M53.925850,146.513489 
	C58.994377,146.887466 64.285881,148.394806 69.472748,148.094543 
	C77.705574,147.617981 85.868492,145.933777 94.464844,144.739059 
	C92.615730,149.972870 87.083221,149.995163 83.133591,150.258759 
	C74.886971,150.809113 66.513870,149.670822 58.212132,148.989716 
	C56.792706,148.873260 55.469528,147.583633 53.925850,146.513489 
z"/>
<path fill="#F0EED2" opacity="1.000000" stroke="none" 
	d="
M108.969162,35.981419 
	C108.799690,32.856796 110.046509,31.345707 113.390121,31.719982 
	C115.697052,31.978210 118.161552,32.306713 120.339973,31.753933 
	C121.997025,31.333452 123.314873,29.576223 124.783638,28.413738 
	C123.292725,27.401438 121.861694,25.639114 120.299904,25.514402 
	C115.167061,25.104538 109.986778,25.288660 104.368980,25.105042 
	C111.046120,24.668045 118.181587,24.190891 125.308716,24.293425 
	C126.232086,24.306709 128.054153,27.512125 127.766060,28.882917 
	C127.431793,30.473410 125.367477,32.621975 123.807480,32.851425 
	C119.930489,33.421669 115.913330,33.038982 111.891670,33.038982 
	C111.476341,35.613911 111.140732,37.694595 110.360260,39.580208 
	C109.599983,38.250565 109.284569,37.115993 108.969162,35.981419 
z"/>
<path fill="#F4E96F" opacity="1.000000" stroke="none" 
	d="
M33.904839,115.454987 
	C33.026810,115.116776 31.759836,114.539307 31.470720,113.645531 
	C28.228876,103.623489 28.023445,93.583168 31.799868,83.626465 
	C32.004086,83.088036 32.704445,82.737793 33.508865,82.223862 
	C32.768444,86.970573 30.743731,91.815361 30.854757,96.610687 
	C30.997692,102.784134 32.852547,108.917938 33.904839,115.454987 
z"/>
<path fill="#FCF391" opacity="1.000000" stroke="none" 
	d="
M43.503414,57.552307 
	C43.087746,55.533180 42.416317,53.528542 42.300987,51.492405 
	C41.819092,42.984341 41.504192,34.466816 40.996384,25.560038 
	C41.916080,26.208143 42.967476,27.248974 43.991814,29.129913 
	C43.810982,39.164120 43.657196,48.358212 43.503414,57.552307 
z"/>
<path fill="#D8D8D5" opacity="1.000000" stroke="none" 
	d="
M43.477631,57.952950 
	C43.657196,48.358212 43.810982,39.164120 43.995857,29.507381 
	C44.553001,29.987284 45.551037,30.939184 45.532562,31.870932 
	C45.333790,41.896637 44.974743,51.919167 44.293388,62.193043 
	C43.768761,61.080208 43.610306,59.716900 43.477631,57.952950 
z"/>
<path fill="#FDF8A2" opacity="1.000000" stroke="none" 
	d="
M122.325897,110.838631 
	C121.868942,102.848694 121.735504,94.636574 121.784866,86.101700 
	C125.520721,90.660019 125.253479,96.321053 124.875877,101.847481 
	C124.673637,104.807358 123.425552,107.695778 122.325897,110.838631 
z"/>
<path fill="#FCF24F" opacity="1.000000" stroke="none" 
	d="
M108.728447,36.318649 
	C109.284569,37.115993 109.599983,38.250565 110.006195,39.738884 
	C110.065613,48.046494 110.034225,56.000359 110.012802,64.409508 
	C109.386429,63.809769 108.204208,62.756771 108.200279,61.699402 
	C108.169289,53.352028 108.363091,45.003826 108.728447,36.318649 
z"/>
<path fill="#FCFADB" opacity="1.000000" stroke="none" 
	d="
M106.943237,125.844940 
	C102.662262,130.899490 98.438858,136.029709 91.221527,137.260345 
	C95.030205,133.504456 99.152359,130.120087 103.187820,126.635330 
	C104.352943,125.629204 105.268806,124.334435 106.652298,123.499207 
	C106.984833,124.499260 106.964035,125.172096 106.943237,125.844940 
z"/>
<path fill="#FDFCE5" opacity="1.000000" stroke="none" 
	d="
M20.302038,25.097183 
	C19.541098,31.170277 20.110998,31.744667 26.048880,31.982405 
	C29.660284,32.126999 33.251060,32.786770 36.699787,33.889656 
	C36.338531,36.399269 36.128593,38.234348 35.918652,40.069431 
	C34.852982,37.722572 34.367294,34.201447 32.578793,33.318096 
	C30.199066,32.142731 26.804705,33.020161 23.846233,33.018394 
	C18.126534,33.014977 16.741682,31.382616 18.080244,26.004816 
	C18.191221,25.558952 19.268270,25.353546 20.302038,25.097183 
z"/>
<path fill="#FEED61" opacity="1.000000" stroke="none" 
	d="
M35.954567,40.531487 
	C36.128593,38.234348 36.338531,36.399269 36.822563,34.290962 
	C37.343113,40.997105 37.589573,47.976463 37.542580,55.444374 
	C36.885582,55.945957 36.522038,55.958996 36.158497,55.972034 
	C36.102493,50.979202 36.046486,45.986370 35.954567,40.531487 
z"/>
<path fill="#FFFBB7" opacity="1.000000" stroke="none" 
	d="
M114.274582,87.082748 
	C116.507889,92.353531 117.915009,97.960190 115.388222,104.048187 
	C114.747002,102.737061 114.212799,101.208061 114.156593,99.661690 
	C114.007935,95.570663 114.066223,91.472130 114.274582,87.082748 
z"/>
<path fill="#FFF7B3" opacity="1.000000" stroke="none" 
	d="
M81.504829,141.101135 
	C76.210388,141.351654 70.453011,141.543488 64.487755,141.446716 
	C69.867218,141.119583 75.454552,141.081039 81.504829,141.101135 
z"/>
<path fill="#FFFDE0" opacity="1.000000" stroke="none" 
	d="
M52.086361,135.616486 
	C49.421104,134.088242 46.686249,132.202591 44.239044,130.065109 
	C47.023380,131.628555 49.520073,133.443802 52.086361,135.616486 
z"/>
<path fill="#FFFCCD" opacity="1.000000" stroke="none" 
	d="
M107.249496,125.705246 
	C106.964035,125.172096 106.984833,124.499260 107.010742,123.489822 
	C108.674744,120.447914 110.333633,117.742592 112.341171,115.058975 
	C110.978462,118.575623 109.267113,122.070587 107.249496,125.705246 
z"/>
<path fill="#FEF241" opacity="1.000000" stroke="none" 
	d="
M36.084747,56.412006 
	C36.522038,55.958996 36.885582,55.945957 37.517830,55.904297 
	C37.398300,58.500839 37.010071,61.125999 36.251060,63.863331 
	C35.923859,61.600990 35.967426,59.226486 36.084747,56.412006 
z"/>
<path fill="#FFFDE0" opacity="1.000000" stroke="none" 
	d="
M44.186127,129.120834 
	C42.473843,128.188858 40.766296,126.905579 39.062656,125.266594 
	C40.774662,126.197105 42.482761,127.483322 44.186127,129.120834 
z"/>
<path fill="#FCF391" opacity="1.000000" stroke="none" 
	d="
M43.352997,68.995461 
	C43.106377,67.180069 43.229523,65.122986 43.620251,62.784119 
	C43.832806,64.586151 43.777782,66.669960 43.352997,68.995461 
z"/>
<path fill="#FCFADB" opacity="1.000000" stroke="none" 
	d="
M90.558823,136.962860 
	C89.867195,137.760315 88.817169,138.568008 87.461578,139.235199 
	C88.170815,138.387482 89.185616,137.680283 90.558823,136.962860 
z"/>
<path fill="#FDF8A2" opacity="1.000000" stroke="none" 
	d="
M121.380905,112.969009 
	C121.199867,112.461548 121.325874,111.842896 121.752991,111.097633 
	C121.932053,111.599953 121.809998,112.228874 121.380905,112.969009 
z"/>
<path fill="#E5E0B4" opacity="1.000000" stroke="none" 
	d="
M52.641464,145.506821 
	C52.963966,145.456299 53.380447,145.613907 53.870888,146.000824 
	C53.541714,146.058411 53.138577,145.886688 52.641464,145.506821 
z"/>
<path fill="#FEF241" opacity="1.000000" stroke="none" 
	d="
M35.667000,64.005020 
	C35.748283,64.357140 35.546791,64.818810 35.140732,65.239807 
	C35.085514,64.837608 35.234863,64.476089 35.667000,64.005020 
z"/>
</svg>